<?xml version="1.0" encoding="UTF-8" standalone="no"?>
<svg width="40px" height="41px" viewBox="0 0 40 41" version="1.1" xmlns="http://www.w3.org/2000/svg" xmlns:xlink="http://www.w3.org/1999/xlink">
    <!-- Generator: Sketch 3.7.2 (28276) - http://www.bohemiancoding.com/sketch -->
    <title>main_mid</title>
    <desc>Created with Sketch.</desc>
    <defs></defs>
    <g id="Page-1" stroke="none" stroke-width="1" fill="none" fill-rule="evenodd">
        <g id="clock" transform="translate(-340.000000, -87.000000)">
            <g id="main_mid" transform="translate(320.000000, 68.000000)">
                <polygon id="Shape" points="0 0 80 0 80 80 0 80"></polygon>
                <path d="M60,27.44 L50.8,19.72 L48.22,22.78 L57.42,30.5 L60,27.44 L60,27.44 Z M31.76,22.78 L29.2,19.72 L20,27.42 L22.58,30.48 L31.76,22.78 L31.76,22.78 Z M41,32 L38,32 L38,44 L47.5,49.7 L49,47.24 L41,42.5 L41,32 L41,32 Z M40,24 C30.06,24 22,32.06 22,42 C22,51.94 30.04,60 40,60 C49.94,60 58,51.94 58,42 C58,32.06 49.94,24 40,24 L40,24 Z M40,56 C32.26,56 26,49.74 26,42 C26,34.26 32.26,28 40,28 C47.74,28 54,34.26 54,42 C54,49.74 47.74,56 40,56 L40,56 Z" id="Shape" fill="#E60044"></path>
            </g>
        </g>
    </g>
</svg>