<?xml version="1.0" encoding="UTF-8" standalone="no"?>
<svg width="32px" height="28px" viewBox="0 0 32 28" version="1.1" xmlns="http://www.w3.org/2000/svg" xmlns:xlink="http://www.w3.org/1999/xlink">
    <!-- Generator: Sketch 3.7.2 (28276) - http://www.bohemiancoding.com/sketch -->
    <title>main_right</title>
    <desc>Created with Sketch.</desc>
    <defs></defs>
    <g id="Page-1" stroke="none" stroke-width="1" fill="none" fill-rule="evenodd">
        <g id="clock" transform="translate(-620.000000, -94.000000)">
            <g id="main_right" transform="translate(596.000000, 68.000000)">
                <polygon id="Shape" points="0 0 80 0 80 80 0 80"></polygon>
                <path d="M24,46 L56,46 L56,42 L24,42 L24,46 L24,46 Z M24,54 L56,54 L56,50 L24,50 L24,54 L24,54 Z M24,38 L56,38 L56,34 L24,34 L24,38 L24,38 Z M24,26 L24,30 L56,30 L56,26 L24,26 L24,26 Z" id="Shape" fill="#555562"></path>
            </g>
        </g>
    </g>
</svg>