<?xml version="1.0" encoding="UTF-8" standalone="no"?>
<svg width="40px" height="40px" viewBox="0 0 40 40" version="1.1" xmlns="http://www.w3.org/2000/svg" xmlns:xlink="http://www.w3.org/1999/xlink">
    <!-- Generator: Sketch 3.7.2 (28276) - http://www.bohemiancoding.com/sketch -->
    <title>main_left</title>
    <desc>Created with Sketch.</desc>
    <defs></defs>
    <g id="Page-1" stroke="none" stroke-width="1" fill="none" fill-rule="evenodd">
        <g id="clock" transform="translate(-64.000000, -88.000000)">
            <g id="main_left" transform="translate(44.000000, 68.000000)">
                <polygon id="Shape" points="0 0 80 0 80 80 0 80"></polygon>
                <path d="M38,24.14 L38,20.1 C33.98,20.5 30.32,22.1 27.36,24.52 L30.2,27.38 C32.42,25.66 35.08,24.5 38,24.14 L38,24.14 Z M52.64,24.52 C49.68,22.1 46.02,20.5 42,20.1 L42,24.14 C44.92,24.5 47.58,25.66 49.8,27.38 L52.64,24.52 L52.64,24.52 Z M55.86,38 L59.9,38 C59.5,33.98 57.9,30.32 55.48,27.36 L52.62,30.2 C54.34,32.42 55.5,35.08 55.86,38 L55.86,38 Z M27.38,30.2 L24.52,27.36 C22.1,30.32 20.5,33.98 20.1,38 L24.14,38 C24.5,35.08 25.66,32.42 27.38,30.2 L27.38,30.2 Z M24.14,42 L20.1,42 C20.5,46.02 22.1,49.68 24.52,52.64 L27.38,49.78 C25.66,47.58 24.5,44.92 24.14,42 L24.14,42 Z M46,40 C46,36.68 43.32,34 40,34 C36.68,34 34,36.68 34,40 C34,43.32 36.68,46 40,46 C43.32,46 46,43.32 46,40 L46,40 Z M52.62,49.8 L55.48,52.66 C57.9,49.7 59.5,46.02 59.9,42.02 L55.86,42.02 C55.5,44.92 54.34,47.58 52.62,49.8 L52.62,49.8 Z M42,55.86 L42,59.9 C46.02,59.5 49.68,57.9 52.64,55.48 L49.78,52.62 C47.58,54.34 44.92,55.5 42,55.86 L42,55.86 Z M27.36,55.48 C30.32,57.9 34,59.5 38,59.9 L38,55.86 C35.08,55.5 32.42,54.34 30.2,52.62 L27.36,55.48 L27.36,55.48 Z" id="Shape" fill="#555562"></path>
            </g>
        </g>
    </g>
</svg>