<?xml version="1.0" encoding="UTF-8" standalone="no"?>
<svg width="36px" height="36px" viewBox="0 0 36 36" version="1.1" xmlns="http://www.w3.org/2000/svg" xmlns:xlink="http://www.w3.org/1999/xlink">
    <!-- Generator: Sketch 3.7.2 (28276) - http://www.bohemiancoding.com/sketch -->
    <title>model_math_grey</title>
    <desc>Created with Sketch.</desc>
    <defs></defs>
    <g id="Page-1" stroke="none" stroke-width="1" fill="none" fill-rule="evenodd">
        <g id="clock-right-copy" transform="translate(-264.000000, -88.000000)">
            <g id="model_math_grey" transform="translate(258.000000, 82.000000)">
                <polygon id="Shape" points="0 0 48 0 48 48 0 48"></polygon>
                <path d="M34,32 L26,24 L26,17.64 C28.32,16.8 30,14.6 30,12 C30,8.68 27.32,6 24,6 C20.68,6 18,8.68 18,12 C18,14.6 19.68,16.8 22,17.64 L22,24 L14,32 L6,32 L6,42 L16,42 L16,35.9 L24,27.5 L32,35.9 L32,42 L42,42 L42,32 L34,32 L34,32 Z" id="Shape" fill="#555562"></path>
            </g>
        </g>
    </g>
</svg>