<?xml version="1.0" encoding="UTF-8" standalone="no"?>
<svg width="300px" height="303px" viewBox="0 0 300 303" version="1.1" xmlns="http://www.w3.org/2000/svg" xmlns:xlink="http://www.w3.org/1999/xlink">
    <!-- Generator: Sketch 3.7.2 (28276) - http://www.bohemiancoding.com/sketch -->
    <title>model_normal_big</title>
    <desc>Created with Sketch.</desc>
    <defs></defs>
    <g id="Page-1" stroke="none" stroke-width="1" fill="none" fill-rule="evenodd">
        <g id="clock-right-copy" transform="translate(-210.000000, -387.000000)">
            <g id="model_normal_big" transform="translate(180.000000, 360.000000)">
                <polygon id="Shape" points="0 0 360 0 360 360 0 360"></polygon>
                <path d="M330,85.8 L261,27.9 L241.65,50.85 L310.65,108.75 L330,85.8 L330,85.8 Z M118.2,50.85 L99,27.9 L30,85.65 L49.35,108.6 L118.2,50.85 L118.2,50.85 Z M187.5,120 L165,120 L165,210 L236.25,252.75 L247.5,234.3 L187.5,198.75 L187.5,120 L187.5,120 Z M180,60 C105.45,60 45,120.45 45,195 C45,269.55 105.3,330 180,330 C254.55,330 315,269.55 315,195 C315,120.45 254.55,60 180,60 L180,60 Z M180,300 C121.95,300 75,253.05 75,195 C75,136.95 121.95,90 180,90 C238.05,90 285,136.95 285,195 C285,253.05 238.05,300 180,300 L180,300 Z" id="Shape" fill="#E60044"></path>
            </g>
        </g>
    </g>
</svg>