<?xml version="1.0" encoding="UTF-8" standalone="no"?>
<svg width="32px" height="32px" viewBox="0 0 32 32" version="1.1" xmlns="http://www.w3.org/2000/svg" xmlns:xlink="http://www.w3.org/1999/xlink">
    <!-- Generator: Sketch 3.7.2 (28276) - http://www.bohemiancoding.com/sketch -->
    <title>model_paint</title>
    <desc>Created with Sketch.</desc>
    <defs></defs>
    <g id="Page-1" stroke="none" stroke-width="1" fill="none" fill-rule="evenodd">
        <g id="clock-left" transform="translate(-88.000000, -746.000000)">
            <g id="model_paint" transform="translate(80.000000, 738.000000)">
                <polygon id="Shape" points="0 0 48 0 48 48 0 48"></polygon>
                <path d="M8,16 L16,16 L16,8 L8,8 L8,16 L8,16 Z M20,40 L28,40 L28,32 L20,32 L20,40 L20,40 Z M8,40 L16,40 L16,32 L8,32 L8,40 L8,40 Z M8,28 L16,28 L16,20 L8,20 L8,28 L8,28 Z M20,28 L28,28 L28,20 L20,20 L20,28 L20,28 Z M32,8 L32,16 L40,16 L40,8 L32,8 L32,8 Z M20,16 L28,16 L28,8 L20,8 L20,16 L20,16 Z M32,28 L40,28 L40,20 L32,20 L32,28 L32,28 Z M32,40 L40,40 L40,32 L32,32 L32,40 L32,40 Z" id="Shape" fill="#FFFFFF"></path>
            </g>
        </g>
    </g>
</svg>