<?xml version="1.0" encoding="UTF-8" standalone="no"?>
<svg width="40px" height="41px" viewBox="0 0 40 41" version="1.1" xmlns="http://www.w3.org/2000/svg" xmlns:xlink="http://www.w3.org/1999/xlink">
    <!-- Generator: Sketch 3.7.2 (28276) - http://www.bohemiancoding.com/sketch -->
    <title>model_normal_grey</title>
    <desc>Created with Sketch.</desc>
    <defs></defs>
    <g id="Page-1" stroke="none" stroke-width="1" fill="none" fill-rule="evenodd">
        <g id="clock-right-copy-2" transform="translate(-104.000000, -87.000000)">
            <g id="model_normal_grey" transform="translate(100.000000, 84.000000)">
                <polygon id="Shape" points="0 0 48 0 48 48 0 48"></polygon>
                <path d="M44,11.44 L34.8,3.72 L32.22,6.78 L41.42,14.5 L44,11.44 L44,11.44 Z M15.76,6.78 L13.2,3.72 L4,11.42 L6.58,14.48 L15.76,6.78 L15.76,6.78 Z M25,16 L22,16 L22,28 L31.5,33.7 L33,31.24 L25,26.5 L25,16 L25,16 Z M24,8 C14.06,8 6,16.06 6,26 C6,35.94 14.04,44 24,44 C33.94,44 42,35.94 42,26 C42,16.06 33.94,8 24,8 L24,8 Z M24,40 C16.26,40 10,33.74 10,26 C10,18.26 16.26,12 24,12 C31.74,12 38,18.26 38,26 C38,33.74 31.74,40 24,40 L24,40 Z" id="Shape" fill="#555562"></path>
            </g>
        </g>
    </g>
</svg>