<?xml version="1.0" encoding="UTF-8" standalone="no"?>
<svg width="48px" height="36px" viewBox="0 0 48 36" version="1.1" xmlns="http://www.w3.org/2000/svg" xmlns:xlink="http://www.w3.org/1999/xlink">
    <!-- Generator: Sketch 3.7.2 (28276) - http://www.bohemiancoding.com/sketch -->
    <title>model_shake</title>
    <desc>Created with Sketch.</desc>
    <defs></defs>
    <g id="Page-1" stroke="none" stroke-width="1" fill="none" fill-rule="evenodd">
        <g id="clock-left" transform="translate(-80.000000, -985.000000)">
            <g id="model_shake" transform="translate(80.000000, 979.000000)">
                <polygon id="Shape" points="0 0 48 0 48 48 0 48"></polygon>
                <path d="M0,30 L4,30 L4,18 L0,18 L0,30 L0,30 Z M6,34 L10,34 L10,14 L6,14 L6,34 L6,34 Z M44,18 L44,30 L48,30 L48,18 L44,18 L44,18 Z M38,34 L42,34 L42,14 L38,14 L38,34 L38,34 Z M33,6 L15,6 C13.34,6 12,7.34 12,9 L12,39 C12,40.66 13.34,42 15,42 L33,42 C34.66,42 36,40.66 36,39 L36,9 C36,7.34 34.66,6 33,6 L33,6 Z M32,38 L16,38 L16,10 L32,10 L32,38 L32,38 Z" id="Shape" fill="#FFFFFF"></path>
            </g>
        </g>
    </g>
</svg>