<?xml version="1.0" encoding="UTF-8" standalone="no"?>
<svg width="270px" height="270px" viewBox="0 0 270 270" version="1.1" xmlns="http://www.w3.org/2000/svg" xmlns:xlink="http://www.w3.org/1999/xlink">
    <!-- Generator: Sketch 3.7.2 (28276) - http://www.bohemiancoding.com/sketch -->
    <title>model_math_big</title>
    <desc>Created with Sketch.</desc>
    <defs></defs>
    <g id="Page-1" stroke="none" stroke-width="1" fill="none" fill-rule="evenodd">
        <g id="clock-right-copy-2" transform="translate(-225.000000, -405.000000)">
            <g id="model_math_big" transform="translate(180.000000, 360.000000)">
                <polygon id="Shape" points="0 0 360 0 360 360 0 360"></polygon>
                <path d="M255,240 L195,180 L195,132.3 C212.4,126 225,109.5 225,90 C225,65.1 204.9,45 180,45 C155.1,45 135,65.1 135,90 C135,109.5 147.6,126 165,132.3 L165,180 L105,240 L45,240 L45,315 L120,315 L120,269.25 L180,206.25 L240,269.25 L240,315 L315,315 L315,240 L255,240 L255,240 Z" id="Shape" fill="#E60044"></path>
            </g>
        </g>
    </g>
</svg>